<svg id="visual" viewBox="0 0 960 540" width="960" height="540" xmlns="http://www.w3.org/2000/svg" xmlns:xlink="http://www.w3.org/1999/xlink" version="1.1"><rect x="0" y="0" width="960" height="540" fill="#CAF0F8"></rect><path d="M0 345L22.8 347.8C45.7 350.7 91.3 356.3 137 369.7C182.7 383 228.3 404 274 416.3C319.7 428.7 365.3 432.3 411.2 416.3C457 400.3 503 364.7 548.8 351.2C594.7 337.7 640.3 346.3 686 357.2C731.7 368 777.3 381 823 377.7C868.7 374.3 914.3 354.7 937.2 344.8L960 335L960 541L937.2 541C914.3 541 868.7 541 823 541C777.3 541 731.7 541 686 541C640.3 541 594.7 541 548.8 541C503 541 457 541 411.2 541C365.3 541 319.7 541 274 541C228.3 541 182.7 541 137 541C91.3 541 45.7 541 22.8 541L0 541Z" fill="#2d8dc4"></path><path d="M0 462L22.8 461.3C45.7 460.7 91.3 459.3 137 447.7C182.7 436 228.3 414 274 394.3C319.7 374.7 365.3 357.3 411.2 370.5C457 383.7 503 427.3 548.8 429.8C594.7 432.3 640.3 393.7 686 384C731.7 374.3 777.3 393.7 823 407.7C868.7 421.7 914.3 430.3 937.2 434.7L960 439L960 541L937.2 541C914.3 541 868.7 541 823 541C777.3 541 731.7 541 686 541C640.3 541 594.7 541 548.8 541C503 541 457 541 411.2 541C365.3 541 319.7 541 274 541C228.3 541 182.7 541 137 541C91.3 541 45.7 541 22.8 541L0 541Z" fill="#2a9dce"></path><path d="M0 487L22.8 485.8C45.7 484.7 91.3 482.3 137 479.5C182.7 476.7 228.3 473.3 274 467.5C319.7 461.7 365.3 453.3 411.2 448.8C457 444.3 503 443.7 548.8 450.5C594.7 457.3 640.3 471.7 686 462.2C731.7 452.7 777.3 419.3 823 417.5C868.7 415.7 914.3 445.3 937.2 460.2L960 475L960 541L937.2 541C914.3 541 868.7 541 823 541C777.3 541 731.7 541 686 541C640.3 541 594.7 541 548.8 541C503 541 457 541 411.2 541C365.3 541 319.7 541 274 541C228.3 541 182.7 541 137 541C91.3 541 45.7 541 22.8 541L0 541Z" fill="#2eacd6"></path><path d="M0 480L22.8 470.7C45.7 461.3 91.3 442.7 137 435.7C182.7 428.7 228.3 433.3 274 436.5C319.7 439.7 365.3 441.3 411.2 436.5C457 431.7 503 420.3 548.8 419.2C594.7 418 640.3 427 686 444.3C731.7 461.7 777.3 487.3 823 492.8C868.7 498.3 914.3 483.7 937.2 476.3L960 469L960 541L937.2 541C914.3 541 868.7 541 823 541C777.3 541 731.7 541 686 541C640.3 541 594.7 541 548.8 541C503 541 457 541 411.2 541C365.3 541 319.7 541 274 541C228.3 541 182.7 541 137 541C91.3 541 45.7 541 22.8 541L0 541Z" fill="#39bbdd"></path><path d="M0 507L22.8 511.3C45.7 515.7 91.3 524.3 137 529.3C182.7 534.3 228.3 535.7 274 536C319.7 536.3 365.3 535.7 411.2 528.3C457 521 503 507 548.8 499.3C594.7 491.7 640.3 490.3 686 495.3C731.7 500.3 777.3 511.7 823 505.3C868.7 499 914.3 475 937.2 463L960 451L960 541L937.2 541C914.3 541 868.7 541 823 541C777.3 541 731.7 541 686 541C640.3 541 594.7 541 548.8 541C503 541 457 541 411.2 541C365.3 541 319.7 541 274 541C228.3 541 182.7 541 137 541C91.3 541 45.7 541 22.8 541L0 541Z" fill="#48cae4"></path></svg>